<?xml version="1.0" encoding="UTF-8"?>
<svg width="398px" height="318px" viewBox="0 0 398 318" version="1.1" xmlns="http://www.w3.org/2000/svg" xmlns:xlink="http://www.w3.org/1999/xlink">
    <title>Group 278</title>
    <defs>
        <polygon id="path-1" points="0 0.676272791 398 0.676272791 398 242.3868 0 242.3868"></polygon>
        <polygon id="path-3" points="0 316 398 316 398 0.724 0 0.724"></polygon>
        <path d="M0.659,4.01 C0.659,6.219 2.45,8.01 4.659,8.01 L4.659,8.01 C6.868,8.01 8.659,6.219 8.659,4.01 L8.659,4.01 C8.659,1.801 6.868,0.01 4.659,0.01 L4.659,0.01 C2.45,0.01 0.659,1.801 0.659,4.01" id="path-5"></path>
        <linearGradient x1="-0.0011875%" y1="49.99974%" x2="99.9988125%" y2="49.99974%" id="linearGradient-7">
            <stop stop-color="#1AE4FF" offset="0%"></stop>
            <stop stop-color="#E9EDED" offset="100%"></stop>
        </linearGradient>
        <path d="M0.159,2.343 C0.159,3.632 1.204,4.677 2.492,4.677 L2.492,4.677 C3.781,4.677 4.826,3.632 4.826,2.343 L4.826,2.343 C4.826,1.055 3.781,0.01 2.492,0.01 L2.492,0.01 C1.204,0.01 0.159,1.055 0.159,2.343" id="path-8"></path>
        <linearGradient x1="-0.00203556889%" y1="49.9962031%" x2="99.9915342%" y2="49.9962031%" id="linearGradient-10">
            <stop stop-color="#1AE4FF" offset="0%"></stop>
            <stop stop-color="#E9EDED" offset="100%"></stop>
        </linearGradient>
        <path d="M0.159,2.509 C0.159,3.799 1.204,4.843 2.492,4.843 L2.492,4.843 C3.781,4.843 4.826,3.799 4.826,2.509 L4.826,2.509 C4.826,1.221 3.781,0.177 2.492,0.177 L2.492,0.177 C1.204,0.177 0.159,1.221 0.159,2.509" id="path-11"></path>
        <linearGradient x1="-0.00215770302%" y1="49.9993913%" x2="99.991412%" y2="49.9993913%" id="linearGradient-13">
            <stop stop-color="#1AE4FF" offset="0%"></stop>
            <stop stop-color="#E9EDED" offset="100%"></stop>
        </linearGradient>
        <path d="M0.826,3.01 C0.826,4.299 1.87,5.343 3.159,5.343 L3.159,5.343 C4.448,5.343 5.492,4.299 5.492,3.01 L5.492,3.01 C5.492,1.721 4.448,0.676 3.159,0.676 L3.159,0.676 C1.87,0.676 0.826,1.721 0.826,3.01" id="path-14"></path>
        <linearGradient x1="-0.00808829833%" y1="50.0101864%" x2="100.004775%" y2="50.0101864%" id="linearGradient-16">
            <stop stop-color="#1AE4FF" offset="0%"></stop>
            <stop stop-color="#E9EDED" offset="100%"></stop>
        </linearGradient>
        <path d="M0.492,3.01 C0.492,4.299 1.537,5.344 2.826,5.344 L2.826,5.344 C4.114,5.344 5.159,4.299 5.159,3.01 L5.159,3.01 C5.159,1.721 4.114,0.677 2.826,0.677 L2.826,0.677 C1.537,0.677 0.492,1.721 0.492,3.01" id="path-17"></path>
        <linearGradient x1="0.00418041568%" y1="49.9888408%" x2="99.9977502%" y2="49.9888408%" id="linearGradient-19">
            <stop stop-color="#1AE4FF" offset="0%"></stop>
            <stop stop-color="#E9EDED" offset="100%"></stop>
        </linearGradient>
        <polygon id="path-20" points="0 316 398 316 398 0.724 0 0.724"></polygon>
        <path d="M6.498,0.004 C3.125,0.004 0.391,2.737 0.391,6.11 L0.391,6.11 L0.391,22.395 C0.391,27.32 4.384,31.311 9.309,31.311 L9.309,31.311 L193.863,31.311 C198.787,31.311 202.78,27.32 202.78,22.395 L202.78,22.395 L202.78,6.11 C202.78,2.737 200.047,0.004 196.673,0.004 L196.673,0.004 L6.498,0.004 Z" id="path-22"></path>
        <linearGradient x1="50.1210265%" y1="48.6408758%" x2="49.462227%" y2="55.4686839%" id="linearGradient-24">
            <stop stop-color="#FD9300" offset="0%"></stop>
            <stop stop-color="#FDC800" offset="100%"></stop>
        </linearGradient>
        <polygon id="path-25" points="0 316 398 316 398 0.724 0 0.724"></polygon>
        <path d="M8.999,0.477 C4.278,0.477 0.452,4.303 0.452,9.024 L0.452,9.024 L0.452,195.659 C0.452,200.379 4.278,204.205 8.999,204.205 L8.999,204.205 L26.965,204.205 L26.965,0.477 L8.999,0.477 Z" id="path-27"></path>
        <linearGradient x1="50%" y1="0%" x2="50%" y2="100%" id="linearGradient-29">
            <stop stop-color="#737D8E" offset="0%"></stop>
            <stop stop-color="#313744" offset="100%"></stop>
        </linearGradient>
        <path d="M0.809,16.372 C0.176,19.043 0.099,21.712 0.481,24.271 L0.481,24.271 C3.508,29.364 8.503,33.28 14.723,34.757 L14.723,34.757 C26.702,37.602 38.698,30.359 41.849,18.535 L41.849,18.535 C40.77,10.164 34.668,2.935 25.971,0.869 L25.971,0.869 C24.347,0.483 22.722,0.299 21.123,0.299 L21.123,0.299 C11.662,0.298 3.091,6.766 0.809,16.372" id="path-30"></path>
        <linearGradient x1="49.2846896%" y1="46.5158977%" x2="59.393933%" y2="164.136225%" id="linearGradient-32">
            <stop stop-color="#FFFFFF" offset="0%"></stop>
            <stop stop-color="#A3A1A1" offset="100%"></stop>
        </linearGradient>
        <polygon id="path-33" points="0.57 44.796 12.683 47.672 23.214 3.332 11.1 0.455"></polygon>
        <linearGradient x1="50.3215203%" y1="39.7589783%" x2="53.0299751%" y2="-46.3681638%" id="linearGradient-35">
            <stop stop-color="#FD9300" offset="0%"></stop>
            <stop stop-color="#FDC800" offset="100%"></stop>
        </linearGradient>
        <polygon id="path-36" points="0.613 91.488 12.082 93.385 27.155 2.234 15.686 0.338"></polygon>
        <linearGradient x1="50.0120978%" y1="48.0097787%" x2="50.3186724%" y2="-2.14405473%" id="linearGradient-38">
            <stop stop-color="#FD3400" offset="0%"></stop>
            <stop stop-color="#FDC800" offset="100%"></stop>
        </linearGradient>
        <polygon id="path-39" points="0.613 91.488 4.913 92.199 19.987 1.05 15.686 0.338"></polygon>
        <linearGradient x1="50.0065203%" y1="48.5457563%" x2="50.2361162%" y2="-2.25559138%" id="linearGradient-41">
            <stop stop-color="#FD3400" offset="0%"></stop>
            <stop stop-color="#FDC800" offset="100%"></stop>
        </linearGradient>
        <polygon id="path-42" points="0.412 91.951 6.283 92.922 21.356 1.771 15.485 0.8"></polygon>
        <linearGradient x1="50.0097615%" y1="47.9903045%" x2="50.256559%" y2="-2.66719568%" id="linearGradient-44">
            <stop stop-color="#FD3400" offset="0%"></stop>
            <stop stop-color="#FDC800" offset="100%"></stop>
        </linearGradient>
        <path d="M0.75,0.706 L4.038,72.54 C4.261,77.42 8.282,81.261 13.167,81.261 L13.167,81.261 L47.662,81.261 L51.348,0.706 L0.75,0.706 Z" id="path-45"></path>
        <linearGradient x1="49.9297947%" y1="11.0007443%" x2="49.0171262%" y2="153.32753%" id="linearGradient-47">
            <stop stop-color="#737D8E" offset="0%"></stop>
            <stop stop-color="#313744" offset="70%"></stop>
            <stop stop-color="#2F3542" offset="100%"></stop>
        </linearGradient>
        <polygon id="path-48" points="0.4516 0.9883 5.8906 0.9883 5.8906 8 0.4516 8"></polygon>
    </defs>
    <g id="Page-1" stroke="none" stroke-width="1" fill="none" fill-rule="evenodd">
        <g id="Artboard" transform="translate(-22.000000, -174.000000)">
            <g id="Group-278" transform="translate(22.000000, 174.000000)">
                <g id="Group-19" transform="translate(0.000000, 0.276000)">
                    <g id="Group-3" transform="translate(0.000000, 67.000000)">
                        <mask id="mask-2" fill="white">
                            <use xlink:href="#path-1"></use>
                        </mask>
                        <g id="Clip-2"></g>
                        <path d="M398.0007,242.3868 C394.6667,221.9388 389.3367,198.3668 381.1187,182.7568 C363.8207,149.9008 348.7797,168.1548 308.9207,190.0588 C269.0617,211.9638 282.5987,45.2438 236.7227,9.9528 C190.8467,-25.3382 165.2767,47.6788 135.1937,101.2228 C105.1117,154.7678 91.5747,129.2128 50.2107,117.0428 C12.0857,105.8268 1.4347,223.8398 -0.0003,242.3868 L398.0007,242.3868 Z" id="Fill-1" fill="#00A353" mask="url(#mask-2)"></path>
                    </g>
                    <mask id="mask-4" fill="white">
                        <use xlink:href="#path-3"></use>
                    </mask>
                    <g id="Clip-5"></g>
                    <polygon id="Fill-4" fill="#FFB300" mask="url(#mask-4)" points="196.659 99.677 204.826 99.677 204.826 81.677 196.659 81.677"></polygon>
                    <polygon id="Fill-6" fill="#FFA000" mask="url(#mask-4)" points="190.826 102.343 211.492 102.343 211.492 97.01 190.826 97.01"></polygon>
                    <polygon id="Fill-7" fill="#FFB300" mask="url(#mask-4)" points="196.326 102.343 205.992 102.343 205.992 97.01 196.326 97.01"></polygon>
                    <polygon id="Fill-8" fill="#FFA000" mask="url(#mask-4)" points="179.992 106.176 222.326 106.176 222.326 102.343 179.992 102.343"></polygon>
                    <polygon id="Fill-9" fill="#FFEF80" mask="url(#mask-4)" points="191.258 106.176 211.059 106.176 211.059 102.343 191.258 102.343"></polygon>
                    <path d="M207.489,80.8477 C207.533,80.7777 207.575,80.7077 207.617,80.6367 C207.743,80.4227 207.858,80.2027 207.963,79.9757 C207.987,79.9247 208.014,79.8747 208.037,79.8227 C208.156,79.5477 208.258,79.2637 208.344,78.9727 C208.365,78.9017 208.381,78.8297 208.399,78.7587 C208.461,78.5267 208.51,78.2907 208.55,78.0507 C208.563,77.9637 208.578,77.8777 208.59,77.7887 C208.598,77.7167 208.611,77.6447 208.619,77.5717 L209.492,77.5717 L209.492,75.6797 L204.507,75.6797 L197.811,75.6797 L192.826,75.6797 L192.826,77.5717 L193.699,77.5717 C194.065,81.3697 197.264,84.3407 201.159,84.3407 C202.435,84.3407 203.635,84.0197 204.687,83.4567 L204.689,83.4577 C204.692,83.4557 204.695,83.4537 204.698,83.4517 C204.967,83.3077 205.223,83.1447 205.471,82.9697 C205.529,82.9287 205.584,82.8857 205.64,82.8437 C205.835,82.6977 206.021,82.5437 206.2,82.3807 C206.252,82.3337 206.304,82.2877 206.355,82.2397 C206.572,82.0317 206.778,81.8117 206.968,81.5787 C206.988,81.5557 207.005,81.5297 207.024,81.5047 C207.191,81.2947 207.345,81.0747 207.489,80.8477" id="Fill-10" fill="#FF7D21" mask="url(#mask-4)"></path>
                    <path d="M235.4919,42.8433 C235.4919,61.8053 220.1209,77.1763 201.1589,77.1763 C182.1969,77.1763 166.8259,61.8053 166.8259,42.8433 L235.4919,42.8433 Z" id="Fill-11" fill="#FFA000" mask="url(#mask-4)"></path>
                    <path d="M217.3259,73.1343 C228.1359,67.3533 235.4919,55.9593 235.4919,42.8433 L199.1589,42.8433 C199.1589,55.9593 206.5149,67.3533 217.3259,73.1343" id="Fill-12" fill="#FFB300" mask="url(#mask-4)"></path>
                    <polygon id="Fill-13" fill="#FFCB5D" mask="url(#mask-4)" points="162.992 46.177 239.326 46.177 239.326 37.51 162.992 37.51"></polygon>
                    <polygon id="Fill-14" fill="#FFEF80" mask="url(#mask-4)" points="185.826 46.177 216.492 46.177 216.492 37.51 185.826 37.51"></polygon>
                    <path d="M85.6589,158.0098 C85.6589,160.2188 83.8679,162.0098 81.6589,162.0098 C79.4499,162.0098 77.6589,160.2188 77.6589,158.0098 C77.6589,155.8008 79.4499,154.0098 81.6589,154.0098 C83.8679,154.0098 85.6589,155.8008 85.6589,158.0098" id="Fill-15" fill="#00A353" mask="url(#mask-4)"></path>
                    <path d="M359.8259,222.5098 C359.8259,224.3508 358.3339,225.8428 356.4919,225.8428 C354.6509,225.8428 353.1589,224.3508 353.1589,222.5098 C353.1589,220.6688 354.6509,219.1768 356.4919,219.1768 C358.3339,219.1768 359.8259,220.6688 359.8259,222.5098" id="Fill-16" fill="#19ABA3" mask="url(#mask-4)"></path>
                    <path d="M239.6589,85.0098 C240.7629,85.0098 241.6589,85.9058 241.6589,87.0098 C241.6589,88.1148 240.7629,89.0098 239.6589,89.0098 C238.5549,89.0098 237.6589,88.1148 237.6589,87.0098 C237.6589,85.9058 238.5549,85.0098 239.6589,85.0098" id="Fill-17" fill="#19ABA3" mask="url(#mask-4)"></path>
                    <path d="M100.3259,124.3433 C101.4299,124.3433 102.3259,125.2393 102.3259,126.3433 C102.3259,127.4473 101.4299,128.3433 100.3259,128.3433 C99.2219,128.3433 98.3259,127.4473 98.3259,126.3433 C98.3259,125.2393 99.2219,124.3433 100.3259,124.3433" id="Fill-18" fill="#00A353" mask="url(#mask-4)"></path>
                </g>
                <g id="Group-22" transform="translate(329.000000, 116.276000)">
                    <mask id="mask-6" fill="white">
                        <use xlink:href="#path-5"></use>
                    </mask>
                    <g id="Clip-21"></g>
                    <path d="M0.659,4.01 C0.659,6.219 2.45,8.01 4.659,8.01 L4.659,8.01 C6.868,8.01 8.659,6.219 8.659,4.01 L8.659,4.01 C8.659,1.801 6.868,0.01 4.659,0.01 L4.659,0.01 C2.45,0.01 0.659,1.801 0.659,4.01" id="Fill-20" fill="url(#linearGradient-7)" mask="url(#mask-6)"></path>
                </g>
                <g id="Group-25" transform="translate(271.000000, 89.276000)">
                    <mask id="mask-9" fill="white">
                        <use xlink:href="#path-8"></use>
                    </mask>
                    <g id="Clip-24"></g>
                    <path d="M0.159,2.343 C0.159,3.632 1.204,4.677 2.492,4.677 L2.492,4.677 C3.781,4.677 4.826,3.632 4.826,2.343 L4.826,2.343 C4.826,1.055 3.781,0.01 2.492,0.01 L2.492,0.01 C1.204,0.01 0.159,1.055 0.159,2.343" id="Fill-23" fill="url(#linearGradient-10)" mask="url(#mask-9)"></path>
                </g>
                <g id="Group-28" transform="translate(25.000000, 224.276000)">
                    <mask id="mask-12" fill="white">
                        <use xlink:href="#path-11"></use>
                    </mask>
                    <g id="Clip-27"></g>
                    <path d="M0.159,2.509 C0.159,3.799 1.204,4.843 2.492,4.843 L2.492,4.843 C3.781,4.843 4.826,3.799 4.826,2.509 L4.826,2.509 C4.826,1.221 3.781,0.177 2.492,0.177 L2.492,0.177 C1.204,0.177 0.159,1.221 0.159,2.509" id="Fill-26" fill="url(#linearGradient-13)" mask="url(#mask-12)"></path>
                </g>
                <g id="Group-31" transform="translate(344.000000, 256.276000)">
                    <mask id="mask-15" fill="white">
                        <use xlink:href="#path-14"></use>
                    </mask>
                    <g id="Clip-30"></g>
                    <path d="M0.826,3.01 C0.826,4.299 1.87,5.343 3.159,5.343 L3.159,5.343 C4.448,5.343 5.492,4.299 5.492,3.01 L5.492,3.01 C5.492,1.721 4.448,0.676 3.159,0.676 L3.159,0.676 C1.87,0.676 0.826,1.721 0.826,3.01" id="Fill-29" fill="url(#linearGradient-16)" mask="url(#mask-15)"></path>
                </g>
                <g id="Group-34" transform="translate(104.000000, 170.276000)">
                    <mask id="mask-18" fill="white">
                        <use xlink:href="#path-17"></use>
                    </mask>
                    <g id="Clip-33"></g>
                    <path d="M0.492,3.01 C0.492,4.299 1.537,5.344 2.826,5.344 L2.826,5.344 C4.114,5.344 5.159,4.299 5.159,3.01 L5.159,3.01 C5.159,1.721 4.114,0.677 2.826,0.677 L2.826,0.677 C1.537,0.677 0.492,1.721 0.492,3.01" id="Fill-32" fill="url(#linearGradient-19)" mask="url(#mask-18)"></path>
                </g>
                <g id="Group-47" transform="translate(0.000000, 0.276000)">
                    <path d="M259.737,233.004 L75.183,233.004 C70.258,233.004 66.265,229.011 66.265,224.086 L66.265,201.806 C66.265,198.434 69,195.7 72.372,195.7 L262.549,195.7 C265.921,195.7 268.655,198.434 268.655,201.806 L268.655,224.086 C268.655,229.011 264.662,233.004 259.737,233.004" id="Fill-35" fill="#545D6D"></path>
                    <path d="M264.0017,233.004 L70.9177,233.004 C68.3487,233.004 66.2657,230.921 66.2657,228.351 L66.2657,222.148 L268.6547,222.148 L268.6547,228.351 C268.6547,230.921 266.5717,233.004 264.0017,233.004" id="Fill-37" fill="#2F3542"></path>
                    <mask id="mask-21" fill="white">
                        <use xlink:href="#path-20"></use>
                    </mask>
                    <g id="Clip-40"></g>
                    <polygon id="Fill-39" fill="#FFF5D4" mask="url(#mask-21)" points="86.911 233.004 95.053 233.004 95.053 195.7 86.911 195.7"></polygon>
                    <polygon id="Fill-41" fill="#E5D5B9" mask="url(#mask-21)" points="86.911 233.004 95.053 233.004 95.053 222.148 86.911 222.148"></polygon>
                    <polygon id="Fill-42" fill="#FFF5D4" mask="url(#mask-21)" points="233.179 233.004 251.208 233.004 251.208 195.7 233.179 195.7"></polygon>
                    <polygon id="Fill-43" fill="#E5D5B9" mask="url(#mask-21)" points="233.179 233.004 251.208 233.004 251.208 222.148 233.179 222.148"></polygon>
                    <polygon id="Fill-44" fill="#FFF5D4" mask="url(#mask-21)" points="97.962 233.004 100.967 233.004 100.967 195.7 97.962 195.7"></polygon>
                    <polygon id="Fill-45" fill="#E5D5B9" mask="url(#mask-21)" points="97.962 233.004 100.967 233.004 100.967 222.148 97.962 222.148"></polygon>
                    <polygon id="Fill-46" fill="#FFF5D4" mask="url(#mask-21)" points="113.373 217.301 222.71 217.301 222.71 207.469 113.373 207.469"></polygon>
                </g>
                <g id="Group-50" transform="translate(45.000000, 233.276000)">
                    <mask id="mask-23" fill="white">
                        <use xlink:href="#path-22"></use>
                    </mask>
                    <g id="Clip-49"></g>
                    <path d="M6.498,0.004 C3.125,0.004 0.391,2.737 0.391,6.11 L0.391,6.11 L0.391,22.395 C0.391,27.32 4.384,31.311 9.309,31.311 L9.309,31.311 L193.863,31.311 C198.787,31.311 202.78,27.32 202.78,22.395 L202.78,22.395 L202.78,6.11 C202.78,2.737 200.047,0.004 196.673,0.004 L196.673,0.004 L6.498,0.004 Z" id="Fill-48" fill="url(#linearGradient-24)" mask="url(#mask-23)"></path>
                </g>
                <g id="Group-63" transform="translate(0.000000, 0.276000)">
                    <path d="M243.1277,264.3116 L50.0437,264.3116 C47.4747,264.3116 45.3917,262.2286 45.3917,259.6596 L45.3917,255.7826 L247.7797,255.7826 L247.7797,259.6596 C247.7797,262.2286 245.6977,264.3116 243.1277,264.3116" id="Fill-51" fill="#FFCB5D"></path>
                    <mask id="mask-26" fill="white">
                        <use xlink:href="#path-25"></use>
                    </mask>
                    <g id="Clip-54"></g>
                    <polygon id="Fill-53" fill="#FFCB5D" mask="url(#mask-26)" points="85.713 251.227 212.304 251.227 212.304 242.551 85.713 242.551"></polygon>
                    <path d="M53.2487,300.418 L53.2487,273.375 C53.2487,271.742 54.5717,270.419 56.2047,270.419 L230.8717,270.419 C232.5047,270.419 233.8277,269.095 233.8277,267.462 C233.8277,265.829 232.5047,264.506 230.8717,264.506 L36.7697,264.506 C33.8257,264.506 31.4387,266.893 31.4387,269.837 L31.4387,303.956 C31.4387,306.9 33.8257,309.287 36.7697,309.287 L230.8717,309.287 C232.5047,309.287 233.8277,307.964 233.8277,306.331 C233.8277,304.698 232.5047,303.375 230.8717,303.375 L56.2047,303.375 C54.5717,303.375 53.2487,302.051 53.2487,300.418" id="Fill-55" fill="#2F3542" mask="url(#mask-26)"></path>
                    <path d="M228.4001,303.3751 L49.3711,303.3751 C43.9641,303.3751 39.5811,298.9911 39.5811,293.5851 L39.5811,280.2081 C39.5811,274.8021 43.9641,270.4191 49.3711,270.4191 L228.4001,270.4191 L228.4001,303.3751 Z" id="Fill-56" fill="#00A353" mask="url(#mask-26)"></path>
                    <path d="M39.5808,292.3243 L39.5808,293.5853 C39.5808,298.9913 43.9648,303.3753 49.3708,303.3753 L228.3998,303.3753 L228.3998,292.3243 L39.5808,292.3243 Z" id="Fill-57" fill="#F1EEEB" mask="url(#mask-26)"></path>
                    <polygon id="Fill-58" fill="#2F3542" mask="url(#mask-26)" points="113.474 308.857 165.802 308.857 165.802 196.527 113.474 196.527"></polygon>
                    <path d="M292.9587,309.2051 L153.0687,309.2051 C148.3497,309.2051 144.5217,305.3791 144.5217,300.6581 L144.5217,122.5701 C144.5217,117.8501 148.3497,114.0231 153.0687,114.0231 L292.9587,114.0231 C297.6787,114.0231 301.5057,117.8501 301.5057,122.5701 L301.5057,300.6581 C301.5057,305.3791 297.6787,309.2051 292.9587,309.2051" id="Fill-59" fill="#2F3542" mask="url(#mask-26)"></path>
                    <path d="M285.7712,303.4317 L159.5592,303.4317 C155.3002,303.4317 151.8482,299.9797 151.8482,295.7207 L151.8482,127.3337 C151.8482,123.0757 155.3002,119.6227 159.5592,119.6227 L285.7712,119.6227 C290.0292,119.6227 293.4822,123.0757 293.4822,127.3337 L293.4822,295.7207 C293.4822,299.9797 290.0292,303.4317 285.7712,303.4317" id="Fill-60" fill="#F2F8FD" mask="url(#mask-26)"></path>
                    <polygon id="Fill-61" fill="#14C39A" mask="url(#mask-26)" points="240.457 303.432 283.017 303.432 283.017 119.623 240.457 119.623"></polygon>
                    <path d="M268.8874,105.4766 L143.8244,105.4766 L143.8244,309.2056 L268.8874,309.2056 C273.6084,309.2056 277.4344,305.3786 277.4344,300.6586 L277.4344,114.0236 C277.4344,109.3036 273.6084,105.4766 268.8874,105.4766" id="Fill-62" fill="#00A353" mask="url(#mask-26)"></path>
                </g>
                <g id="Group-66" transform="translate(120.000000, 105.276000)">
                    <mask id="mask-28" fill="white">
                        <use xlink:href="#path-27"></use>
                    </mask>
                    <g id="Clip-65"></g>
                    <path d="M8.999,0.477 C4.278,0.477 0.452,4.303 0.452,9.024 L0.452,9.024 L0.452,195.659 C0.452,200.379 4.278,204.205 8.999,204.205 L8.999,204.205 L26.965,204.205 L26.965,0.477 L8.999,0.477 Z" id="Fill-64" fill="url(#linearGradient-29)" mask="url(#mask-28)"></path>
                </g>
                <g id="Group-83" transform="translate(159.000000, 149.276000)">
                    <path d="M91.573,31.3052 L8.372,31.3052 C4.037,31.3052 0.523,27.7912 0.523,23.4562 L0.523,16.1302 C0.523,11.7952 4.037,8.2812 8.372,8.2812 L91.573,8.2812 C95.908,8.2812 99.423,11.7952 99.423,16.1302 L99.423,23.4562 C99.423,27.7912 95.908,31.3052 91.573,31.3052" id="Fill-67" fill="#F2F8FD"></path>
                    <path d="M73.5085,52.2364 L24.3445,52.2364 C21.7815,52.2364 19.7055,50.1594 19.7055,47.5984 L19.7055,43.2694 C19.7055,40.7074 21.7815,38.6314 24.3445,38.6314 L73.5085,38.6314 C76.0705,38.6314 78.1465,40.7074 78.1465,43.2694 L78.1465,47.5984 C78.1465,50.1594 76.0705,52.2364 73.5085,52.2364" id="Fill-69" fill="#F2F8FD"></path>
                    <path d="M97.2243,72.0782 L101.2453,159.9602 C101.2493,160.0432 101.2633,160.1232 101.2693,160.2052 L109.8873,160.2052 C114.6083,160.2052 118.4343,156.3792 118.4343,151.6582 L118.4343,72.0782 L97.2243,72.0782 Z" id="Fill-71" fill="#11723D"></path>
                    <polygon id="Fill-73" fill="#B0BEC5" points="168.7361 68.2745 160.0851 66.2195 163.4241 52.1605 172.0761 54.2155"></polygon>
                    <polygon id="Fill-75" fill="#CFD8DC" points="168.7361 68.2745 163.7611 67.0925 167.1001 53.0345 172.0761 54.2155"></polygon>
                    <path d="M162.3982,56.4776 C163.8812,57.1186 165.4252,57.6636 167.0512,58.0486 C168.3772,58.3646 169.7012,58.5436 171.0182,58.6646 L172.0762,54.2156 L163.4232,52.1606 L162.3982,56.4776 Z" id="Fill-77" fill="#B0BEC5"></path>
                    <path d="M201.3943,34.6734 C197.8203,49.7254 182.7193,59.0284 167.6683,55.4544 C152.6173,51.8794 143.3133,36.7794 146.8873,21.7284 C150.4623,6.6764 165.5623,-2.6276 180.6143,0.9474 C195.6653,4.5224 204.9693,19.6224 201.3943,34.6734" id="Fill-79" fill="#00A353"></path>
                    <path d="M194.4734,33.0294 C191.8064,44.2584 180.5404,51.1994 169.3124,48.5324 C158.0834,45.8654 151.1424,34.6004 153.8094,23.3714 C156.4764,12.1424 167.7414,5.2014 178.9704,7.8694 C190.1994,10.5354 197.1394,21.8004 194.4734,33.0294" id="Fill-81" fill="#11723D"></path>
                </g>
                <g id="Group-86" transform="translate(312.000000, 156.276000)">
                    <mask id="mask-31" fill="white">
                        <use xlink:href="#path-30"></use>
                    </mask>
                    <g id="Clip-85"></g>
                    <path d="M0.809,16.372 C0.176,19.043 0.099,21.712 0.481,24.271 L0.481,24.271 C3.508,29.364 8.503,33.28 14.723,34.757 L14.723,34.757 C26.702,37.602 38.698,30.359 41.849,18.535 L41.849,18.535 C40.77,10.164 34.668,2.935 25.971,0.869 L25.971,0.869 C24.347,0.483 22.722,0.299 21.123,0.299 L21.123,0.299 C11.662,0.298 3.091,6.766 0.809,16.372" id="Fill-84" fill="url(#linearGradient-32)" mask="url(#mask-31)"></path>
                </g>
                <g id="Group-89" transform="translate(308.000000, 207.276000)">
                    <mask id="mask-34" fill="white">
                        <use xlink:href="#path-33"></use>
                    </mask>
                    <g id="Clip-88"></g>
                    <polygon id="Fill-87" fill="url(#linearGradient-35)" mask="url(#mask-34)" points="0.57 44.796 12.683 47.672 23.214 3.332 11.1 0.455"></polygon>
                </g>
                <g id="Group-132" transform="translate(270.000000, 186.276000)">
                    <polygon id="Fill-90" fill="#FF7D21" points="50.6823 68.6719 47.3293 67.8759 57.8613 23.5349 61.2133 24.3319"></polygon>
                    <path d="M8.2068,10.9659 L2.0668,12.1529 C1.4338,12.2759 0.8598,11.6119 0.9728,10.8869 L2.3898,1.7529 C2.4528,1.3419 2.7278,1.0299 3.0858,0.9609 L3.0878,0.9609 C3.4458,0.8909 3.8168,1.0789 4.0288,1.4349 L8.7498,9.3829 C9.1248,10.0129 8.8398,10.8429 8.2068,10.9659" id="Fill-92" fill="#37474F"></path>
                    <path d="M29.1716,108.6505 L19.0746,110.6035 C18.7116,110.6735 18.4736,111.0255 18.5446,111.3895 L19.9426,118.6155 C20.0126,118.9795 20.3636,119.2165 20.7276,119.1465 L30.8236,117.1935 C31.1886,117.1235 31.4256,116.7715 31.3556,116.4085 L29.9576,109.1815 C29.8876,108.8185 29.5346,108.5805 29.1716,108.6505" id="Fill-94" fill="#7986CB"></path>
                    <path d="M29.3855,108.6094 L25.0765,109.4424 C24.8315,109.4904 24.6715,109.7274 24.7185,109.9724 L26.1985,117.6274 C26.2465,117.8724 26.4845,118.0334 26.7295,117.9854 L31.0375,117.1524 C31.2835,117.1044 31.4445,116.8674 31.3965,116.6224 L29.9155,108.9674 C29.8685,108.7224 29.6305,108.5614 29.3855,108.6094" id="Fill-96" fill="#3949AB"></path>
                    <path d="M26.5886,109.1505 L21.6576,110.1045 C21.3976,110.1545 21.2266,110.4075 21.2766,110.6685 L22.7456,118.2655 C22.7966,118.5265 23.0496,118.6975 23.3106,118.6465 L28.2416,117.6935 C28.5026,117.6425 28.6736,117.3895 28.6226,117.1295 L27.1526,109.5315 C27.1026,109.2705 26.8506,109.0995 26.5886,109.1505" id="Fill-98" fill="#5C6BC0"></path>
                    <polygon id="Fill-100" fill="#ECEFF1" points="30.196 110.4141 18.783 112.6221 0.079 15.9281 11.492 13.7201"></polygon>
                    <polygon id="Fill-102" fill="#B0BEC5" points="30.196 110.4141 26.731 111.0841 8.028 14.3901 11.492 13.7201"></polygon>
                    <polygon id="Fill-104" fill="#CFD8DC" points="27.4021 110.9542 21.5761 112.0812 2.8731 15.3872 8.6981 14.2602"></polygon>
                    <polygon id="Fill-106" fill="#2F3542" points="29.6169 107.421 18.2039 109.628 0.6579 18.921 12.0709 16.714"></polygon>
                    <polygon id="Fill-108" fill="#2F3542" points="29.6169 107.421 25.3369 108.248 7.7909 17.541 12.0709 16.714"></polygon>
                    <polygon id="Fill-110" fill="#2F3542" points="26.8318 107.959 20.9888 109.09 3.4428 18.382 9.2858 17.252"></polygon>
                    <polygon id="Fill-112" fill="#FFCC80" points="7.1999 6.3775 1.3239 7.5145 0.0789 15.9275 11.4919 13.7195"></polygon>
                    <polygon id="Fill-114" fill="#FFA000" points="5.7859 14.8243 11.4919 13.7203 7.1999 6.3773 4.2619 6.9463"></polygon>
                    <polygon id="Fill-116" fill="#FFB300" points="5.7614 6.6558 2.7624 7.2368 2.8724 15.3868 8.6984 14.2598"></polygon>
                    <path d="M8.239,108.2208 L14.408,109.2418 C15.045,109.3468 15.352,110.1678 14.995,110.8098 L10.492,118.8818 C10.29,119.2438 9.924,119.4418 9.563,119.3818 L9.562,119.3818 C9.202,119.3228 8.919,119.0178 8.843,118.6098 L7.179,109.5168 C7.047,108.7948 7.602,108.1158 8.239,108.2208" id="Fill-118" fill="#37474F"></path>
                    <path d="M22.531,9.3394 L32.677,11.0174 C33.043,11.0774 33.387,10.8304 33.448,10.4644 L34.648,3.2034 C34.709,2.8384 34.462,2.4924 34.096,2.4324 L23.951,0.7544 C23.586,0.6944 23.24,0.9414 23.179,1.3064 L21.979,8.5684 C21.919,8.9334 22.166,9.2784 22.531,9.3394" id="Fill-120" fill="#2F3542"></path>
                    <path d="M22.3161,9.3033 L26.6451,10.0193 C26.8921,10.0603 27.1251,9.8933 27.1661,9.6463 L28.4381,1.9553 C28.4781,1.7083 28.3111,1.4753 28.0651,1.4353 L23.7361,0.7193 C23.4891,0.6783 23.2551,0.8453 23.2151,1.0923 L21.9431,8.7833 C21.9031,9.0303 22.0691,9.2623 22.3161,9.3033" id="Fill-122" fill="#2F3542"></path>
                    <path d="M25.1257,9.7686 L30.0817,10.5876 C30.3447,10.6316 30.5917,10.4546 30.6357,10.1916 L31.8977,2.5566 C31.9407,2.2946 31.7637,2.0466 31.5017,2.0036 L26.5457,1.1836 C26.2837,1.1406 26.0357,1.3176 25.9927,1.5796 L24.7297,9.2146 C24.6867,9.4766 24.8637,9.7256 25.1257,9.7686" id="Fill-124" fill="#2F3542"></path>
                    <polygon id="Fill-126" fill="#ECEFF1" points="22.1833 7.3296 33.6533 9.2266 17.5833 106.3936 6.1153 104.4966"></polygon>
                    <polygon id="Fill-128" fill="#B0BEC5" points="22.1833 7.3296 25.6653 7.9056 9.5963 105.0726 6.1153 104.4966"></polygon>
                    <polygon id="Fill-130" fill="#CFD8DC" points="24.9909 7.794 30.8449 8.762 14.7759 105.929 8.9229 104.961"></polygon>
                </g>
                <g id="Group-135" transform="translate(276.000000, 196.276000)">
                    <mask id="mask-37" fill="white">
                        <use xlink:href="#path-36"></use>
                    </mask>
                    <g id="Clip-134"></g>
                    <polygon id="Fill-133" fill="url(#linearGradient-38)" mask="url(#mask-37)" points="0.613 91.488 12.082 93.385 27.155 2.234 15.686 0.338"></polygon>
                </g>
                <g id="Group-138" transform="translate(276.000000, 196.276000)">
                    <mask id="mask-40" fill="white">
                        <use xlink:href="#path-39"></use>
                    </mask>
                    <g id="Clip-137"></g>
                    <polygon id="Fill-136" fill="url(#linearGradient-41)" mask="url(#mask-40)" points="0.613 91.488 4.913 92.199 19.987 1.05 15.686 0.338"></polygon>
                </g>
                <g id="Group-141" transform="translate(279.000000, 196.276000)">
                    <mask id="mask-43" fill="white">
                        <use xlink:href="#path-42"></use>
                    </mask>
                    <g id="Clip-140"></g>
                    <polygon id="Fill-139" fill="url(#linearGradient-44)" mask="url(#mask-43)" points="0.412 91.951 6.283 92.922 21.356 1.771 15.485 0.8"></polygon>
                </g>
                <g id="Group-150" transform="translate(265.000000, 212.276000)">
                    <polygon id="Fill-142" fill="#FFCC80" points="12.5876 86.8731 18.4926 87.8501 22.5836 80.3941 11.1146 78.4961"></polygon>
                    <polygon id="Fill-144" fill="#FFA000" points="16.8493 79.4444 11.1153 78.4964 12.5873 86.8734 15.5403 87.3614"></polygon>
                    <polygon id="Fill-146" fill="#FFB300" points="14.0339 87.1114 17.0479 87.6104 19.7759 79.9284 13.9229 78.9614"></polygon>
                    <path d="M62.198,97.3087 L14.143,97.3087 C9.259,97.3087 5.237,93.4667 5.013,88.5867 L0.993,0.7057 L75.347,0.7057 L71.327,88.5867 C71.103,93.4667 67.082,97.3087 62.198,97.3087" id="Fill-148" fill="#313744"></path>
                </g>
                <g id="Group-153" transform="translate(289.000000, 212.276000)">
                    <mask id="mask-46" fill="white">
                        <use xlink:href="#path-45"></use>
                    </mask>
                    <g id="Clip-152"></g>
                    <path d="M0.75,0.706 L4.038,72.54 C4.261,77.42 8.282,81.261 13.167,81.261 L13.167,81.261 L47.662,81.261 L51.348,0.706 L0.75,0.706 Z" id="Fill-151" mask="url(#mask-46)"></path>
                    <path d="M4.25,72.544 C4.46943473,77.4255626 8.49351035,81.2689295 13.38,81.2640047 L47.87,81.2640047 L51.6,0.724 L1,0.724 L4.25,72.544 Z" id="Path" fill="url(#linearGradient-47)" fill-rule="nonzero" mask="url(#mask-46)"></path>
                </g>
                <g id="Group-277" transform="translate(41.000000, 0.276000)">
                    <path d="M32.5339,220.0098 C32.5339,220.0098 37.1589,217.5098 37.5339,218.5098 C37.9089,219.5098 32.5339,222.1348 31.9089,222.1348 C31.2839,222.1348 31.6589,220.7598 31.6589,220.7598 L32.5339,220.0098 Z" id="Fill-154" fill="#FFB300"></path>
                    <path d="M18.8864,230.2364 C18.8864,230.2364 23.8194,231.8104 23.6554,232.4404 C23.4904,233.0704 17.3244,232.3624 17.2414,231.5754 C17.1594,230.7874 17.9004,229.6854 18.3934,229.7634 C18.8864,229.8424 18.8864,230.2364 18.8864,230.2364" id="Fill-156" fill="#FFB300"></path>
                    <path d="M7.9919,200.9268 C7.9919,200.9268 12.3259,212.4268 14.6589,215.7598 C16.9919,219.0928 16.9919,230.4268 16.9919,230.4268 L19.8259,230.4268 C19.8259,230.4268 20.8259,218.4268 19.4919,213.9268 C18.1589,209.4268 15.3259,200.9268 15.3259,200.9268 L7.9919,200.9268 Z" id="Fill-158" fill="#424242"></path>
                    <path d="M12.8484,206.6133 C12.8484,206.6133 16.0974,207.8233 19.5424,209.6973 C22.9884,211.5713 24.5874,212.3073 24.8664,212.7953 C25.1444,213.2823 29.6014,220.2903 30.7314,220.9543 C31.8614,221.6183 33.2274,220.5243 33.1034,219.3893 C32.9794,218.2563 29.2604,210.5823 27.8204,209.3443 C26.3794,208.1063 19.3234,201.9123 16.5384,201.5633 C13.7544,201.2153 11.6404,205.3393 12.8484,206.6133" id="Fill-160" fill="#424242"></path>
                    <path d="M12.4548,183.813 C12.4548,183.813 15.1108,184.594 16.3608,187.329 C17.6108,190.062 19.7988,198.578 19.2518,202.562 C18.7048,204.983 10.5028,204.358 8.1588,202.093 C7.8468,200.296 6.5178,193.578 7.9248,186.86 C8.2368,185.219 9.9558,183.813 12.4548,183.813" id="Fill-162" fill="#2F3542"></path>
                    <path d="M10.737,175.689 C10.737,175.689 13.119,178.111 12.884,180.61 C12.533,182.681 11.674,182.837 12.963,184.204 C12.963,184.204 11.986,185.61 10.151,184.672 C10.151,184.672 11.01,183.657 9.526,182.798 C8.406,182.149 6.635,179.985 6.401,178.111 C6.167,176.236 7.104,175.455 8.354,175.142 C9.61,174.828 10.385,175.22 10.737,175.689" id="Fill-164" fill="#FFCC80"></path>
                    <path d="M10.6316,188.9439 C10.6316,188.9439 5.9626,194.5149 1.5486,195.7909 C-1.2614,195.3099 7.2286,186.6019 9.2776,186.6529 C11.3276,186.7049 10.6316,188.9439 10.6316,188.9439" id="Fill-166" fill="#2F3542"></path>
                    <path d="M8.6892,198.2803 C8.6892,198.2803 9.1762,198.7333 9.6932,198.5623 C10.2102,198.3913 11.2972,198.5223 11.6752,198.8133 C12.0522,199.1053 10.8792,199.0883 10.8792,199.0883 C10.8792,199.0883 12.8992,199.3803 12.89023,199.5753 C12.8802,199.7703 11.4082,200.3253 10.5902,200.2473 C9.7722,200.1703 9.3392,199.4063 8.5282,199.2113 L8.6892,198.2803 Z" id="Fill-168" fill="#FFCC80"></path>
                    <path d="M1.8327,194.4737 C1.8327,194.4737 6.5247,196.1047 9.1517,198.4197 L8.6357,199.4117 C8.6357,199.4117 5.3027,198.7837 2.9427,197.4197 C0.5837,196.0567 0.6617,194.4177 1.8327,194.4737" id="Fill-170" fill="#2F3542"></path>
                    <path d="M28.6638,193.3111 C28.6638,193.3111 29.3568,193.4331 29.7908,193.1611 C30.2258,192.8881 31.4738,192.3061 31.6158,192.5421 C31.7588,192.7791 31.1148,193.1421 31.1148,193.1421 C31.1148,193.1421 32.2028,193.0041 32.4098,193.3731 C32.6178,193.7411 31.7698,195.1501 31.0898,195.0681 C30.4088,194.9851 29.6008,194.2471 29.1828,194.1651 C28.7638,194.0841 28.5548,194.0441 28.5548,194.0441 L28.6638,193.3111 Z" id="Fill-172" fill="#FFCC80"></path>
                    <path d="M12.8825,187.419 C12.8825,187.419 17.4545,193.07 21.8455,194.422 C24.6635,193.989 16.3255,185.136 14.2765,185.151978 C12.2255,185.169 12.8825,187.419 12.8825,187.419" id="Fill-174" fill="#2F3542"></path>
                    <path d="M20.9958,192.462 C20.9958,192.462 25.9528,192.127 29.2758,193.23 L29.1888,194.344 C29.1888,194.344 25.8768,195.071 23.1718,194.739 C20.4668,194.407 19.8968,192.869 20.9958,192.462" id="Fill-176" fill="#2F3542"></path>
                    <path d="M11.0495,177.7007 C11.0495,177.7007 12.0445,179.2827 11.8115,179.5757 C11.5765,179.8677 10.4635,180.0437 10.4045,179.8097 C10.3465,179.5757 11.2825,179.1647 11.2825,179.1647 C11.2825,179.1647 10.4045,177.3487 11.0495,177.7007" id="Fill-178" fill="#FF8A65"></path>
                    <path d="M6.6804,175.5552 C6.6804,175.5552 9.3894,171.7882 10.9094,173.0442 C12.4294,174.3002 12.9574,175.2912 9.9844,176.4142 C7.0104,177.5372 7.2754,178.2642 7.9354,179.5202 C8.5964,180.7752 9.1244,181.1062 8.5964,181.2382 C8.0684,181.3702 7.8204,179.3222 7.1594,179.4532 C6.4984,179.5862 8.1334,181.3212 8.2664,181.3212 C8.3984,181.3212 6.0854,181.1722 5.5564,179.1892 C5.0284,177.2072 5.7554,177.3392 5.7554,177.3392 C5.7554,177.3392 5.0284,176.2822 6.6804,175.5552" id="Fill-180" fill="#424242"></path>
                    <path d="M131.3611,254.7588 C131.3611,254.7588 133.3701,252.9498 135.1781,254.8598 C136.9871,256.7688 134.2741,258.9798 136.3841,259.7828 C138.4951,260.5868 140.0021,260.6878 139.3991,263.1988 C138.7971,265.7108 137.5901,266.8168 138.1931,268.7258 C138.7971,270.6348 136.2841,272.6448 133.8731,271.7388 C131.4621,270.8358 129.7531,271.8398 127.4421,273.6488 C125.1311,275.4568 121.2131,272.9458 122.4181,269.8308 C123.6241,266.7158 126.1351,267.1178 125.4321,264.0028 C124.7291,260.8878 122.7191,258.1748 125.0311,255.8638 C127.3411,253.5528 131.3611,254.7588 131.3611,254.7588" id="Fill-182" fill="#2F3542"></path>
                    <path d="M141.2155,285.9161 C141.2155,285.9161 141.7255,292.0351 140.1955,294.3291 C138.6655,296.6241 125.9185,298.5361 125.1535,297.3891 C124.3895,296.2411 128.2135,295.2221 131.0185,294.2021 C133.8215,293.1831 136.4985,290.8881 135.8615,286.5541 C135.2245,282.2201 141.2155,285.9161 141.2155,285.9161" id="Fill-184" fill="#FFA812"></path>
                    <path d="M130.3357,281.7647 C130.3357,281.7647 132.9447,286.2977 133.0827,291.7917 C133.4947,296.7367 126.9007,306.9017 127.4507,309.0987 C128.0007,311.1597 135.5557,301.8197 137.2027,296.4617 C138.8517,291.1057 137.7527,283.9627 136.6537,281.9027 C135.5557,279.8417 130.3357,281.7647 130.3357,281.7647" id="Fill-186" fill="#FFCC80"></path>
                    <g id="Group-190" transform="translate(125.000000, 308.000000)">
                        <mask id="mask-49" fill="white">
                            <use xlink:href="#path-48"></use>
                        </mask>
                        <g id="Clip-189"></g>
                        <path d="M1.0466,0.9883 C1.0466,0.9883 0.4516,1.5413 0.4516,1.8813 C0.4516,2.2203 1.1316,2.7303 1.4716,3.5383 C1.8116,4.3453 3.0436,6.3423 4.2756,7.2773 C5.2956,8.0423 5.4436,8.0003 5.4436,8.0003 L5.8906,7.5323 C5.8906,7.5323 2.7036,3.4953 2.5756,3.3683 C2.4486,3.2403 1.0466,0.9883 1.0466,0.9883" id="Fill-188" fill="#F5F5F5" mask="url(#mask-49)"></path>
                    </g>
                    <path d="M127.1511,309.3282 C127.4491,310.2212 128.6641,311.4112 129.4371,310.8372 C129.0551,310.0082 129.2971,308.4782 129.2971,308.4782 C129.2971,308.4782 128.4201,307.2622 127.7041,307.4272 C127.7041,307.4272 126.8531,308.4362 127.1511,309.3282" id="Fill-191" fill="#FFCC80"></path>
                    <path d="M129.4372,310.837 C128.6642,311.411 127.4492,310.221 127.1512,309.328 C126.9362,308.686 127.3162,307.987 127.5462,307.645 C126.8332,307.917 125.8492,308.929 125.7882,309.4 C125.7212,309.905 126.3382,310.35 127.0552,311.719 C127.6532,312.959 130.2512,315.854 130.7182,315.679 C131.1292,315.464 131.2682,314.798 131.2682,314.798 C131.283207,313.359 129.8192,311.666 129.4372,310.837" id="Fill-193" fill="#2F3542"></path>
                    <path d="M124.3474,296.5391 C124.3474,296.5391 123.5754,296.7901 123.4314,297.0981 C123.2884,297.4061 123.6904,298.1551 123.6594,299.0301 C123.6264,299.9061 123.9034,302.2361 124.6264,303.6031 C125.2294,304.7271 125.3814,304.7511 125.3814,304.7511 L125.9834,304.5151 C125.9834,304.5151 124.7934,299.5111 124.7324,299.3421 C124.6694,299.1731 124.3474,296.5391 124.3474,296.5391" id="Fill-195" fill="#F5F5F5"></path>
                    <path d="M125.2058,297.3135 C125.0998,298.2485 125.7008,299.8385 126.6438,299.6445 C126.6458,298.7315 127.5108,297.4465 127.5108,297.4465 C127.5108,297.4465 127.2268,295.9725 126.5078,295.8215 C126.5078,295.8215 125.3118,296.3785 125.2058,297.3135" id="Fill-197" fill="#FFA812"></path>
                    <path d="M126.6443,299.6446 C125.7013,299.8386 125.0993,298.2486 125.2063,297.3136 C125.2833,296.6396 125.9203,296.1656 126.2743,295.9526 C125.5113,295.8986 124.1943,296.4026 123.9393,296.8026 C123.6663,297.2346 124.0393,297.8976 124.1123,299.4406 C124.1313,300.8166 125.2693,304.5376 125.7653,304.5756 C126.2293,304.5526 126.6353,304.0076 126.6353,304.0076 C127.2543,302.7096 126.6413,300.5576 126.6443,299.6446" id="Fill-199" fill="#2F3542"></path>
                    <path d="M129.3845,277.3331 C129.3845,277.3331 128.0445,278.4051 128.1785,281.3531 C128.3135,284.3001 125.3655,288.3181 123.0875,289.5241 C120.8105,290.7301 124.0265,292.6051 126.0355,292.3381 C128.0445,292.0691 128.8485,292.4721 131.1265,295.0181 C133.4045,297.5631 135.5475,293.5441 138.3615,295.0181 C141.1745,296.4911 144.1215,295.6881 145.7295,293.6781 C147.3365,291.6681 149.7475,291.9361 150.0165,290.1941 C150.2835,288.4521 145.4605,286.1751 143.4515,282.8261 C141.4425,279.4771 141.4425,277.4671 140.2365,276.7971 C139.0305,276.1271 129.3845,277.3331 129.3845,277.3331" id="Fill-201" fill="#2F3542"></path>
                    <path d="M134.4763,265.1368 C134.4763,265.1368 138.7353,262.3468 142.3633,261.8758 C145.1073,261.9498 143.6063,264.5248 141.6043,265.9918 C137.9493,268.6718 132.7963,267.7438 134.4763,265.1368" id="Fill-203" fill="#2F3542"></path>
                    <path d="M133.865,263.3116 C133.865,263.3116 136.329,263.5666 137.094,264.5856 C137.859,265.6056 137.859,266.6256 138.709,267.9006 C139.558,269.1746 138.284,270.2806 138.879,272.1496 C139.473,274.0186 139.219,274.1046 140.323,275.8036 C141.427,277.5026 140.323,278.2686 138.964,279.1186 C137.604,279.9676 131.145,280.2226 129.616,278.3526 C128.086,276.4836 129.361,276.0586 129.786,274.6146 C130.211,273.1686 130.041,270.4506 129.786,267.9856 C129.531,265.5206 130.296,264.3316 132.08,263.6516 C133.865,262.9716 133.865,263.3116 133.865,263.3116" id="Fill-205" fill="#2F3542"></path>
                    <path d="M118.2741,271.1963 C118.2741,271.1963 117.5561,271.3423 117.1701,270.8843 C116.7841,270.4253 115.6871,269.9213 115.1651,269.9773 C114.6431,270.0343 115.7531,270.6933 115.7531,270.6933 C115.7531,270.6933 113.6891,269.8033 113.5861,269.9923 C113.4821,270.1803 114.5451,271.5503 115.3571,271.9483 C116.1701,272.3453 117.0151,271.8793 117.8891,272.1633 L118.2741,271.1963 Z" id="Fill-207" fill="#FFCC80"></path>
                    <path d="M150.1931,258.7706 C150.1931,258.7706 150.8951,258.5636 151.0231,257.9776 C151.1501,257.3926 151.8821,256.4326 152.3711,256.2386 C152.8581,256.0436 152.1861,257.1466 152.1861,257.1466 C152.1861,257.1466 153.5931,255.3946 153.7731,255.5126 C153.9531,255.6306 153.6551,257.3386 153.1231,258.0706 C152.5911,258.8016 151.6251,258.7846 150.9851,259.4456 L150.1931,258.7706 Z" id="Fill-209" fill="#FFCC80"></path>
                    <path d="M132.6999,254.5801 C132.6999,254.5801 135.3239,257.2471 135.0649,260.0001 C134.6789,262.2791 133.7319,262.4511 135.1519,263.9561 C135.1519,263.9561 134.0769,265.5051 132.0549,264.4731 C132.0549,264.4731 133.0019,263.3541 131.3669,262.4081 C130.1339,261.6941 128.1839,259.3111 127.9269,257.2471 C127.6679,255.1831 128.6999,254.3221 130.0769,253.9781 C131.4599,253.6331 132.3129,254.0641 132.6999,254.5801" id="Fill-211" fill="#FFCC80"></path>
                    <path d="M133.0446,256.7959 C133.0446,256.7959 134.1416,258.5369 133.8826,258.8599 C133.6246,259.1829 132.3986,259.3759 132.3346,259.1179 C132.2706,258.8599 133.3026,258.4079 133.3026,258.4079 C133.3026,258.4079 132.3346,256.4079 133.0446,256.7959" id="Fill-213" fill="#FF8A65"></path>
                    <path d="M130.3806,264.8409 C130.3806,264.8409 126.1316,267.6459 124.2616,270.7899 C123.2416,273.3389 126.1996,272.9809 128.3406,271.7249 C132.2496,269.4299 133.4406,264.3309 130.3806,264.8409" id="Fill-215" fill="#2F3542"></path>
                    <path d="M125.113,271.0948 C124.824,271.0948 118.845,270.7088 117.496,271.2878 C116.435,271.8658 118.653,273.2168 120.774,273.5058 C122.895,273.7948 127.332,273.1198 128.488,271.4808 C129.645,269.8418 125.113,271.0948 125.113,271.0948" id="Fill-217" fill="#2F3542"></path>
                    <path d="M142.8152,261.6924 C143.0752,261.5644 149.0752,258.6334 150.5422,258.5594 C151.7492,258.6124 150.3832,260.8494 148.5742,261.9944 C143.0162,265.5094 142.5662,265.2664 140.8052,264.3044 C139.0442,263.3414 142.8152,261.6924 142.8152,261.6924" id="Fill-219" fill="#2F3542"></path>
                    <path d="M128.3464,253.3526 C128.3464,253.3526 131.9634,252.1466 132.8674,254.1566 C133.7724,256.1656 129.5524,255.9646 129.5524,257.4716 C129.5524,258.9796 131.5614,258.6776 130.5564,260.0836 C129.5524,261.4916 132.1764,261.3156 131.1654,262.6096 C130.1554,263.9026 126.3364,260.6876 126.5374,258.1746 C126.7394,255.6636 126.4374,254.2566 128.3464,253.3526" id="Fill-221" fill="#2F3542"></path>
                    <path d="M189.9167,225.4297 C189.6927,222.7137 188.3097,219.6177 188.3097,219.6177 L188.1527,219.6367 C187.9647,218.9177 188.2527,218.1957 187.8827,217.5347 C187.4797,216.8187 186.1847,215.9247 186.0187,216.0287 C185.8537,216.1317 186.7647,217.9577 186.7647,217.9577 C186.7647,217.9577 186.1097,216.9847 186.0857,217.4607 C186.0607,217.9367 186.5737,218.9057 187.0087,219.2327 C187.1907,219.3687 187.2767,219.5627 187.3187,219.7427 L187.1997,219.7587 C186.9397,221.9907 187.3957,224.7537 187.7557,226.4527 C185.1167,225.0447 181.6797,224.3787 179.8497,224.1067 C179.2077,223.6337 178.6177,223.3647 178.2957,223.2387 C177.4137,222.1427 178.1457,221.8467 178.4687,219.9437 C178.7027,217.4447 176.3197,215.0227 176.3197,215.0227 C176.2937,214.9877 176.2597,214.9537 176.2287,214.9197 C176.4797,214.6147 176.5617,214.2807 176.3257,213.9267 C174.5757,212.7597 171.3257,215.0097 171.3257,215.0097 C168.9917,216.9267 172.4917,221.4267 173.7417,221.3427 C173.8607,221.3347 173.9387,221.2757 173.9997,221.1927 C174.3897,221.6037 174.7777,221.9397 175.1087,222.1307 C175.9607,222.6237 176.0347,223.1627 175.9477,223.5367 C175.4797,223.7217 175.0697,223.9617 174.7247,224.2487 C172.5687,223.0047 168.9267,221.6697 166.7337,221.4487 C166.1427,219.9587 164.8197,216.9437 163.1287,215.0237 L163.0517,215.0637 C162.9997,214.8907 162.9617,214.7047 162.9907,214.5227 C163.0717,214.0167 163.1197,212.6397 162.8457,212.6017 C162.5717,212.5627 162.4897,213.2967 162.4897,213.2967 C162.4897,213.2967 162.1907,212.2417 161.7707,212.1957 C161.3517,212.1487 160.3857,213.4787 160.7277,214.0737 C161.0647,214.6587 162.0337,215.1087 162.2897,215.4597 L162.1367,215.5387 C162.1367,215.5387 162.7647,218.8717 164.1277,221.2327 C164.4257,221.7477 164.7357,222.1407 165.0397,222.4377 C167.1437,224.8407 171.0967,226.5177 173.3017,227.3117 C172.2487,233.6427 173.4467,239.7297 173.7417,241.4257 C173.7417,241.4257 170.1487,255.9897 169.2247,260.7467 C168.2987,265.5047 166.7127,275.1527 166.9777,275.9457 C166.9987,276.0107 167.0417,276.0577 167.0807,276.1097 C166.1807,276.5017 162.5347,278.1487 162.5997,279.0237 C162.6737,280.0217 165.0097,279.9107 166.5767,279.2517 C168.1477,278.4617 168.6097,277.9257 168.6097,277.9257 C168.6097,277.9257 169.0687,278.3597 169.4247,277.8717 C169.7807,277.3857 170.2307,276.4037 169.7147,276.1247 C169.6617,276.0967 169.5867,276.0757 169.5077,276.0557 C170.2047,275.4367 173.1967,262.4447 174.1137,260.2187 C174.2757,259.8247 174.5667,259.0567 174.9327,258.0637 C175.3797,261.1527 178.5307,269.2277 179.3487,270.1767 C179.6327,270.5077 180.0407,270.6867 180.4727,270.7477 C180.2287,271.4267 178.7877,275.5347 179.5027,276.1117 C180.2827,276.7397 181.7977,274.9577 182.3877,273.3637 C182.8837,271.6757 182.8087,270.9727 182.8087,270.9727 C182.8087,270.9727 183.4377,270.9337 183.3257,270.3407 C183.2457,269.9187 183.0127,269.2967 182.6857,269.0377 C182.7227,266.7817 180.4967,258.1817 180.3097,257.5757 C180.1097,256.9347 180.7717,254.9317 181.9477,250.3837 C182.9007,246.6987 184.1307,243.4837 184.5627,242.3967 C184.6897,242.2447 184.7927,242.0817 184.8347,241.8947 C185.2997,238.5087 183.7907,231.8637 182.5597,228.2617 C185.7137,228.8707 189.1797,229.0127 189.4377,227.9697 C189.7797,227.4997 190.0197,226.6657 189.9167,225.4297" id="Fill-223" fill="#2F3542"></path>
                    <path d="M165.28,272.7735 C165.28,272.7735 160.526,274.7755 160.599,275.7735 C160.674,276.7715 163.009,276.6615 164.577,276.0025 C166.148,275.2115 166.61,274.6755 166.61,274.6755 C166.61,274.6755 167.069,275.1095 167.425,274.6225 C167.781,274.1355 168.231,273.1535 167.715,272.8755 C167.199,272.5965 165.28,272.7735 165.28,272.7735" id="Fill-225" fill="#14C39A"></path>
                    <path d="M171.7419,238.1758 C171.7419,238.1758 168.1489,252.7388 167.2239,257.4968 C166.2989,262.2548 164.7129,271.9028 164.9769,272.6958 C165.2419,273.4888 166.8279,273.2238 167.4879,272.8268 C168.1489,272.4308 171.1879,259.2148 172.1139,256.9688 C173.0389,254.7218 178.0609,240.5808 178.0609,239.3918 C178.0609,238.2018 173.4849,236.9608 171.7419,238.1758" id="Fill-227" fill="#424242"></path>
                    <path d="M178.5105,267.3936 C178.5105,267.3936 176.7235,272.2336 177.5025,272.8616 C178.2825,273.4896 179.7975,271.7076 180.3875,270.1136 C180.8835,268.4256 180.8085,267.7226 180.8085,267.7226 C180.8085,267.7226 181.4385,267.6836 181.3255,267.0906 C181.2135,266.4976 180.8035,265.4986 180.2475,265.6856 C179.6935,265.8726 178.5105,267.3936 178.5105,267.3936" id="Fill-229" fill="#14C39A"></path>
                    <path d="M182.7214,238.754 C182.7214,238.754 181.1234,242.586 179.9484,247.134 C178.7724,251.682 178.1104,253.685 178.3094,254.326 C178.5074,254.968 180.9984,264.597 180.6574,266.129 C180.3144,267.661 178.2404,267.963 177.3484,266.927 C176.4564,265.892 172.7804,256.364 172.8734,254.091 C172.9674,251.818 173.3144,240.577 175.2844,237.856 C177.2544,235.134 182.5934,236.654 182.7214,238.754" id="Fill-231" fill="#616161"></path>
                    <path d="M176.0388,219.8965 C176.0388,219.8965 178.6948,220.6775 179.9438,223.4125 C181.1938,226.1465 183.3818,234.6615 182.8348,238.6445 C182.2878,241.0665 174.0858,240.4415 171.7418,238.1755 C171.4298,236.3795 170.1018,229.6615 171.5078,222.9435 C171.8198,221.3025 173.5388,219.8965 176.0388,219.8965" id="Fill-233" fill="#2F3542"></path>
                    <path d="M174.32,211.7725 C174.32,211.7725 176.703,214.1945 176.468,216.6935 C176.117,218.7635 175.257,218.9195 176.547,220.2875 C176.547,220.2875 175.57,221.6935 173.734,220.7555 C173.734,220.7555 174.593,219.7405 173.109,218.8805 C171.99,218.2325 170.218,216.0685 169.984,214.1945 C169.75,212.3195 170.687,211.5385 171.937,211.2255 C173.193,210.9115 173.968,211.3035 174.32,211.7725" id="Fill-235" fill="#FFCC80"></path>
                    <path d="M176.57,220.6934 C176.57,220.6934 183.809,221.3544 187.374,224.2544 C188.579,226.8384 176.586,224.8254 175.46,223.1114 C174.334,221.3974 176.57,220.6934 176.57,220.6934" id="Fill-237" fill="#2F3542"></path>
                    <path d="M185.3484,216.9678 C185.3484,216.9678 185.4444,216.3098 185.0084,215.9828 C184.5744,215.6558 184.0604,214.6868 184.0854,214.2108 C184.1104,213.7348 184.7644,214.7078 184.7644,214.7078 C184.7644,214.7078 183.8534,212.8818 184.0184,212.7788 C184.1844,212.6748 185.4804,213.5688 185.8824,214.2848 C186.2844,215.0008 185.9034,215.7918 186.2054,216.5708 L185.3484,216.9678 Z" id="Fill-239" fill="#FFCC80"></path>
                    <path d="M186.1286,224.7725 C186.1286,224.7725 184.7946,219.9865 185.1996,216.5085 L186.3096,216.3675 C186.3096,216.3675 187.6926,219.4635 187.9166,222.1795 C188.1416,224.8955 186.7496,225.7655 186.1286,224.7725" id="Fill-241" fill="#2F3542"></path>
                    <path d="M161.2937,212.3692 C161.2937,212.3692 160.9097,211.7782 160.9907,211.2722 C161.0717,210.7662 161.1197,209.3902 160.8457,209.3512 C160.5717,209.3122 160.4897,210.0472 160.4897,210.0472 C160.4897,210.0472 160.1907,208.9922 159.7717,208.9452 C159.3517,208.8982 158.3857,210.2282 158.7277,210.8232 C159.0697,211.4172 160.0647,211.8722 160.3037,212.2252 L160.6607,212.7562 L161.2937,212.3692 Z" id="Fill-243" fill="#FFCC80"></path>
                    <path d="M172.8874,224.5879 C172.8874,224.5879 165.8994,222.5909 162.9374,219.0779 C162.2334,216.3159 173.6424,220.5259 174.4294,222.4199 C175.2164,224.3139 172.8874,224.5879 172.8874,224.5879" id="Fill-245" fill="#2F3542"></path>
                    <path d="M165.0739,219.0938 C165.0739,219.0938 163.4429,214.4008 161.1289,211.7738 L160.1369,212.2888 C160.1369,212.2888 160.7639,215.6218 162.1279,217.9828 C163.4909,220.3418 165.1299,220.2638 165.0739,219.0938" id="Fill-247" fill="#2F3542"></path>
                    <path d="M174.6325,213.7842 C174.6325,213.7842 175.6285,215.3652 175.3945,215.6582 C175.1595,215.9512 174.0465,216.1272 173.9875,215.8922 C173.9295,215.6582 174.8665,215.2482 174.8665,215.2482 C174.8665,215.2482 173.9875,213.4322 174.6325,213.7842" id="Fill-249" fill="#FF8A65"></path>
                    <path d="M169.3259,211.7598 C169.3259,211.7598 172.5759,209.5098 174.3259,210.6768 C175.3259,212.1768 170.7419,213.3428 170.7419,213.3428 C170.7419,213.3428 172.9919,218.0098 171.7419,218.0928 C170.4919,218.1768 166.9919,213.6768 169.3259,211.7598" id="Fill-251" fill="#424242"></path>
                    <polygon id="Fill-253" fill="#FFB300" points="151.826 315.343 154.826 315.343 154.826 124.343 151.826 124.343"></polygon>
                    <polygon id="Fill-255" fill="#FFB300" points="169.826 315.343 172.826 315.343 172.826 124.343 169.826 124.343"></polygon>
                    <polygon id="Fill-256" fill="#FFB300" points="153.492 135.343 170.492 135.343 170.492 132.676 153.492 132.676"></polygon>
                    <polygon id="Fill-257" fill="#FFB300" points="153.492 146.343 170.492 146.343 170.492 143.676 153.492 143.676"></polygon>
                    <polygon id="Fill-258" fill="#FFB300" points="153.492 157.343 170.492 157.343 170.492 154.676 153.492 154.676"></polygon>
                    <polygon id="Fill-259" fill="#FFB300" points="153.492 168.343 170.492 168.343 170.492 165.676 153.492 165.676"></polygon>
                    <polygon id="Fill-260" fill="#FFB300" points="153.492 179.343 170.492 179.343 170.492 176.676 153.492 176.676"></polygon>
                    <polygon id="Fill-261" fill="#FFB300" points="153.492 190.343 170.492 190.343 170.492 187.676 153.492 187.676"></polygon>
                    <polygon id="Fill-262" fill="#FFB300" points="153.492 201.343 170.492 201.343 170.492 198.677 153.492 198.677"></polygon>
                    <polygon id="Fill-263" fill="#FFB300" points="153.492 212.343 170.492 212.343 170.492 209.677 153.492 209.677"></polygon>
                    <polygon id="Fill-264" fill="#FFB300" points="153.492 223.343 170.492 223.343 170.492 220.677 153.492 220.677"></polygon>
                    <polygon id="Fill-265" fill="#FFB300" points="153.492 234.343 170.492 234.343 170.492 231.677 153.492 231.677"></polygon>
                    <polygon id="Fill-266" fill="#FFB300" points="153.492 245.343 170.492 245.343 170.492 242.677 153.492 242.677"></polygon>
                    <polygon id="Fill-267" fill="#FFB300" points="153.492 256.343 170.492 256.343 170.492 253.677 153.492 253.677"></polygon>
                    <polygon id="Fill-268" fill="#FFB300" points="153.492 267.343 170.492 267.343 170.492 264.677 153.492 264.677"></polygon>
                    <polygon id="Fill-269" fill="#FFB300" points="153.492 278.343 170.492 278.343 170.492 275.677 153.492 275.677"></polygon>
                    <polygon id="Fill-270" fill="#FFB300" points="153.492 289.343 170.492 289.343 170.492 286.677 153.492 286.677"></polygon>
                    <polygon id="Fill-271" fill="#FFB300" points="153.492 300.343 170.492 300.343 170.492 297.677 153.492 297.677"></polygon>
                    <path d="M214.8103,56.3926 L215.4533,54.0076 C215.6373,53.3226 216.6093,53.3226 216.7933,54.0076 L217.4363,56.3926 C217.5003,56.6316 217.6873,56.8186 217.9263,56.8826 L220.3113,57.5246 C220.9973,57.7096 220.9973,58.6826 220.3113,58.8666 L217.9263,59.5086 C217.6873,59.5736 217.5003,59.7596 217.4363,59.9986 L216.7933,62.3846 C216.6093,63.0696 215.6373,63.0696 215.4533,62.3846 L214.8103,59.9986 C214.7463,59.7596 214.5593,59.5736 214.3203,59.5086 L211.9353,58.8666 C211.2493,58.6826 211.2493,57.7096 211.9353,57.5246 L214.3203,56.8826 C214.5593,56.8186 214.7463,56.6316 214.8103,56.3926" id="Fill-272" fill="#FEC800"></path>
                    <path d="M129.5808,85.6168 L130.0168,83.9998 C130.1418,83.5348 130.8008,83.5348 130.9258,83.9998 L131.3608,85.6168 C131.4038,85.7788 131.5308,85.9058 131.6928,85.9488 L133.3098,86.3848 C133.7748,86.5098 133.7748,87.1688 133.3098,87.2938 L131.6928,87.7298 C131.5308,87.7728 131.4038,87.8998 131.3608,88.0618 L130.9258,89.6788 C130.8008,90.1438 130.1418,90.1438 130.0168,89.6788 L129.5808,88.0618 C129.5368,87.8998 129.4098,87.7728 129.2478,87.7298 L127.6308,87.2938 C127.1658,87.1688 127.1658,86.5098 127.6308,86.3848 L129.2478,85.9488 C129.4098,85.9058 129.5368,85.7788 129.5808,85.6168" id="Fill-273" fill="#FEC800"></path>
                    <path d="M104.8786,28.5098 L105.3146,26.8928 C105.4396,26.4278 106.0986,26.4278 106.2236,26.8928 L106.6586,28.5098 C106.7026,28.6718 106.8286,28.7988 106.9906,28.8428 L108.6076,29.2778 C109.0726,29.4028 109.0726,30.0618 108.6076,30.1878 L106.9906,30.6228 C106.8286,30.6668 106.7026,30.7928 106.6586,30.9548 L106.2236,32.5718 C106.0986,33.0368 105.4396,33.0368 105.3146,32.5718 L104.8786,30.9548 C104.8346,30.7928 104.7076,30.6668 104.5466,30.6228 L102.9286,30.1878 C102.4646,30.0618 102.4646,29.4028 102.9286,29.2778 L104.5466,28.8428 C104.7076,28.7988 104.8346,28.6718 104.8786,28.5098" id="Fill-274" fill="#FEC800"></path>
                    <path d="M160.9314,2.0499 L163.4234,7.1069 C163.7694,7.8079 164.4384,8.2939 165.2114,8.4069 L170.7894,9.2199 C172.7394,9.5049 173.5154,11.8999 172.1044,13.2739 L168.0664,17.2069 C167.5054,17.7519 167.2494,18.5379 167.3814,19.3089 L168.3314,24.8659 C168.6634,26.8069 166.6254,28.2859 164.8834,27.3679 L159.8944,24.7419 C159.2024,24.3779 158.3754,24.3779 157.6834,24.7409 L152.6924,27.3619 C150.9494,28.2779 148.9124,26.7969 149.2464,24.8559 L150.2024,19.2999 C150.3344,18.5289 150.0794,17.7429 149.5204,17.1969 L145.4854,13.2589 C144.0764,11.8839 144.8554,9.4899 146.8044,9.2079 L152.3834,8.4009 C153.1574,8.2879 153.8264,7.8029 154.1724,7.1019 L156.6704,2.0479 C157.5424,0.2819 160.0604,0.2829 160.9314,2.0499" id="Fill-275" fill="#FEC800"></path>
                    <path d="M170.7898,9.2203 L165.2118,8.4073 C164.4378,8.2943 163.7688,7.8073 163.4238,7.1063 L160.9318,2.0503 C160.4908,1.1573 159.6308,0.7173 158.7738,0.726164703 L158.7738,24.4703 C159.1588,24.4673 159.5438,24.5573 159.8938,24.7423 L164.8838,27.3683 C166.6258,28.2853 168.6638,26.8063 168.3318,24.8663 L167.3818,19.3083 C167.2498,18.5383 167.5058,17.7523 168.0658,17.2063 L172.1038,13.2733 C173.5158,11.8993 172.7388,9.5043 170.7898,9.2203" id="Fill-276" fill="#FE9300"></path>
                </g>
            </g>
        </g>
    </g>
</svg>